<?xml version="1.0" standalone="no"?>
<!DOCTYPE svg PUBLIC "-//W3C//DTD SVG 20010904//EN"
 "http://www.w3.org/TR/2001/REC-SVG-20010904/DTD/svg10.dtd">
<svg version="1.0" xmlns="http://www.w3.org/2000/svg"
 width="650.000000pt" height="650.000000pt" viewBox="0 0 650.000000 650.000000"
 preserveAspectRatio="xMidYMid meet">

<g transform="translate(0.000000,650.000000) scale(0.100000,-0.100000)"
fill="#000000" stroke="none">
<path d="M3035 6494 c-472 -47 -784 -128 -1145 -293 -351 -161 -654 -374 -935
-656 -283 -283 -500 -592 -656 -935 -398 -874 -398 -1846 0 -2720 156 -343
373 -652 656 -935 519 -521 1147 -828 1900 -931 162 -22 587 -26 745 -6 634
78 1164 295 1660 678 148 114 430 397 544 544 378 490 586 987 673 1611 24
174 24 624 0 798 -87 624 -295 1121 -673 1611 -114 147 -396 430 -544 544
-483 374 -1007 592 -1611 672 -109 14 -530 27 -614 18z m103 -139 c116 -35
192 -133 200 -260 4 -62 1 -81 -20 -126 -31 -69 -78 -116 -146 -147 -47 -21
-65 -24 -137 -20 -91 5 -131 23 -194 90 -61 64 -88 194 -59 279 29 88 108 161
196 185 63 17 99 17 160 -1z m885 -13 c105 -47 173 -162 164 -282 -7 -106 -69
-195 -167 -239 -60 -27 -178 -28 -235 -2 -128 58 -197 226 -150 362 54 153
236 228 388 161z m-1688 -916 c179 -84 219 -317 77 -461 -54 -55 -109 -76
-196 -77 -114 0 -198 46 -253 139 -40 68 -45 181 -11 254 34 74 69 113 130
143 71 36 180 37 253 2z m1690 0 c137 -63 199 -216 146 -358 -23 -61 -80 -127
-132 -154 -113 -58 -287 -19 -364 81 -106 139 -50 364 108 436 62 28 177 26
242 -5z m-2566 -892 c114 -33 193 -146 192 -275 0 -163 -105 -270 -272 -277
-85 -4 -137 12 -197 62 -59 51 -85 109 -90 201 -5 101 6 139 60 199 80 92 192
125 307 90z m2564 -14 c56 -28 98 -70 129 -130 31 -60 33 -195 4 -254 -87
-175 -339 -212 -467 -69 -144 159 -78 403 126 470 56 18 153 10 208 -17z
m-3348 -897 c67 -22 136 -93 164 -166 71 -190 -52 -375 -255 -385 -93 -5 -157
21 -218 89 -53 59 -76 121 -76 203 1 191 197 323 385 259z m3330 -7 c107 -49
167 -145 166 -266 0 -155 -105 -266 -262 -278 -136 -9 -247 64 -289 192 -19
58 -15 157 8 209 61 137 243 206 377 143z m-3330 -873 c67 -22 136 -93 164
-166 70 -189 -51 -374 -252 -385 -169 -10 -297 116 -297 291 1 193 196 325
385 260z m1657 -21 c172 -76 221 -312 94 -450 -59 -64 -123 -92 -214 -92 -121
0 -200 48 -253 155 -28 58 -31 71 -28 143 3 66 9 86 34 127 79 127 233 176
367 117z m-860 -2 c110 -41 180 -146 179 -270 0 -119 -48 -197 -153 -249 -51
-26 -73 -31 -133 -31 -93 0 -160 32 -216 102 -48 61 -62 111 -57 209 3 67 7
82 37 126 78 115 217 160 343 113z m1691 0 c182 -68 238 -328 99 -463 -55 -53
-117 -81 -188 -85 -161 -11 -289 101 -302 264 -11 136 72 253 208 295 47 14
129 9 183 -11z m842 -14 c104 -48 171 -166 162 -282 -14 -187 -203 -308 -383
-247 -66 22 -145 101 -167 167 -20 57 -22 148 -5 197 26 78 94 146 175 175 62
22 160 18 218 -10z m899 0 c53 -22 121 -91 145 -147 23 -51 29 -132 16 -200
-14 -73 -105 -167 -183 -189 -20 -5 -66 -10 -102 -10 -103 1 -184 48 -238 139
-25 42 -27 55 -27 146 0 108 6 124 69 193 76 83 215 112 320 68z m921 -14 c47
-24 105 -83 131 -132 15 -27 19 -57 19 -131 0 -88 -2 -99 -29 -139 -41 -62
-83 -98 -144 -120 -194 -73 -387 60 -387 265 0 124 65 219 183 266 62 25 170
21 227 -9z m-1829 -896 c99 -46 155 -126 162 -231 5 -76 -9 -130 -51 -191 -41
-62 -108 -103 -182 -113 -140 -19 -256 43 -312 167 -61 131 8 311 142 373 61
28 175 26 241 -5z m-5 -927 c105 -46 164 -147 157 -271 -9 -166 -114 -267
-278 -268 -95 0 -159 28 -218 95 -75 85 -90 194 -42 302 66 149 226 208 381
142z"/>
</g>
</svg>
